{"title":"Spy.{2015}.NEWSOURCE.HQCAM.XVID.MP3.MRG","uid":11999805,"size":1720779823,"categoryP":"video","categoryS":"movies","magnet":"?xt=urn:btih:a80d331bdcebcfa6a0573678864524d0b3596ee6&amp;dn=Spy.%7B2015%7D.NEWSOURCE.HQCAM.XVID.MP3.MRG&amp;tr=udp%3A%2F%2Ftracker.openbittorrent.com%3A80&amp;tr=udp%3A%2F%2Fopen.demonii.com%3A1337&amp;tr=udp%3A%2F%2Ftracker.coppersurfer.tk%3A6969&amp;tr=udp%3A%2F%2Fexodus.desync.com%3A6969","seeders":10,"leechers":1,"uploader":"makintos13","files":13,"time":1433745779,"description":"Spy.{2015}.NEWSOURCE.HQCAM.XVID.MP3.MRG\n\nSpy.{2015}.NEWSOURCE.HQCAM.XVID.MP3.MRG\n\nFormat : AVI\nFormat/Info : Audio Video Interleave\nFormat profile : OpenDML\nFile size : 1.60 GiB\nDuration : 1h 54mn\nOverall bit rate : 2 003 Kbps\n\n\nVideo\nID : 0\nFormat : xvid\nCodec ID : xvid\nDuration : 1h 54mn\nBit rate : 1 829 Kbps\nWidth : 652 pixels\nHeight : 264 pixels\nDisplay aspect ratio : 2.470\nFrame rate : 29.970 fps\nBits/(Pixel*Frame) : 0.354\nStream size : 1.46 GiB (91%)\n\nAudio\nID : 1\nFormat : MPEG Audio\nFormat version : Version 1\nFormat profile : Layer 3\nMode : Joint stereo\nMode extension : MS Stereo\nCodec ID : 55\nCodec ID/Hint : MP3\nDuration : 1h 54mn\nBit rate mode : Constant\nBit rate : 160 Kbps\nChannel(s) : 2 channels\nSampling rate : 48.0 KHz\nCompression mode : Lossy\nStream size : 131 MiB (8%)\nAlignment : Aligned on interleaves\nInterleave, duration : 24 ms (0.72 video frame)","torrent":{"xt":"urn:btih:a80d331bdcebcfa6a0573678864524d0b3596ee6","amp;dn":"Spy.%7B2015%7D.NEWSOURCE.HQCAM.XVID.MP3.MRG","amp;tr":["udp%3A%2F%2Ftracker.openbittorrent.com%3A80","udp%3A%2F%2Fopen.demonii.com%3A1337","udp%3A%2F%2Ftracker.coppersurfer.tk%3A6969","udp%3A%2F%2Fexodus.desync.com%3A6969"],"infoHash":"a80d331bdcebcfa6a0573678864524d0b3596ee6","infoHashBuffer":{"type":"Buffer","data":[168,13,51,27,220,235,207,166,160,87,54,120,134,69,36,208,179,89,110,230]},"announce":[],"urlList":[]}}